<svg xmlns="http://www.w3.org/2000/svg" xmlns:xlink="http://www.w3.org/1999/xlink" width="500" zoomAndPan="magnify" viewBox="0 0 375 149.999998" height="200" preserveAspectRatio="xMidYMid meet" version="1.2"><defs><clipPath id="dcf08c452c"><path d="M 143.390625 11.46875 L 351 11.46875 L 351 114.96875 L 143.390625 114.96875 Z M 143.390625 11.46875 "/></clipPath></defs><g id="2a9ccabfa4"><g clip-rule="nonzero" clip-path="url(#dcf08c452c)"><path style=" stroke:none;fill-rule:nonzero;fill:#ff6600;fill-opacity:1;" d="M 143.390625 -40.46875 L 350.90625 -40.46875 L 350.90625 167.046875 L 143.390625 167.046875 Z M 143.390625 -40.46875 "/></g><g style="fill:#ffffff;fill-opacity:1;"><g transform="translate(17.412212, 111.085786)"><path style="stroke:none" d="M 28 1.640625 C 23.394531 1.640625 19.414062 0.515625 16.0625 -1.734375 C 12.707031 -3.984375 10.179688 -6.890625 8.484375 -10.453125 C 6.785156 -14.023438 5.9375 -17.734375 5.9375 -21.578125 C 5.9375 -28.941406 7.800781 -34.984375 11.53125 -39.703125 C 15.257812 -44.421875 19.734375 -48.097656 24.953125 -50.734375 C 30.171875 -53.367188 36.898438 -56.113281 45.140625 -58.96875 L 45.140625 -68.53125 C 45.140625 -71.269531 44.726562 -73.351562 43.90625 -74.78125 C 43.082031 -76.21875 41.625 -76.9375 39.53125 -76.9375 C 37.445312 -76.9375 35.960938 -76.273438 35.078125 -74.953125 C 34.203125 -73.640625 33.710938 -71.773438 33.609375 -69.359375 L 32.953125 -62.4375 L 7.90625 -63.421875 C 8.34375 -74.847656 11.363281 -83.273438 16.96875 -88.703125 C 22.570312 -94.140625 30.914062 -96.859375 42 -96.859375 C 51.34375 -96.859375 58.484375 -94.25 63.421875 -89.03125 C 68.359375 -83.820312 70.828125 -76.878906 70.828125 -68.203125 L 70.828125 -23.71875 C 70.828125 -14.050781 71.378906 -6.144531 72.484375 0 L 48.4375 0 C 47.445312 -7.351562 46.734375 -11.859375 46.296875 -13.515625 C 44.972656 -9.117188 42.773438 -5.492188 39.703125 -2.640625 C 36.628906 0.210938 32.726562 1.640625 28 1.640625 Z M 37.5625 -16.46875 C 40.300781 -16.46875 42.828125 -18.0625 45.140625 -21.25 L 45.140625 -47.28125 C 40.191406 -44.425781 36.453125 -41.429688 33.921875 -38.296875 C 31.398438 -35.171875 30.140625 -31.359375 30.140625 -26.859375 C 30.140625 -23.671875 30.796875 -21.140625 32.109375 -19.265625 C 33.429688 -17.398438 35.25 -16.46875 37.5625 -16.46875 Z M 37.5625 -16.46875 "/></g></g><g style="fill:#ffffff;fill-opacity:1;"><g transform="translate(82.479715, 111.085786)"><path style="stroke:none" d="M 25.203125 1.640625 C 19.492188 1.640625 15.097656 -0.414062 12.015625 -4.53125 C 8.941406 -8.644531 7.40625 -14 7.40625 -20.59375 L 7.40625 -95.21875 L 34.265625 -95.21875 L 34.265625 -23.71875 C 34.265625 -21.300781 34.703125 -19.488281 35.578125 -18.28125 C 36.460938 -17.070312 37.890625 -16.46875 39.859375 -16.46875 C 41.617188 -16.46875 44.253906 -17.457031 47.765625 -19.4375 L 47.765625 -95.21875 L 74.453125 -95.21875 L 74.453125 0 L 47.765625 0 L 47.765625 -8.734375 C 40.304688 -1.816406 32.785156 1.640625 25.203125 1.640625 Z M 25.203125 1.640625 "/></g></g><g style="fill:#ffffff;fill-opacity:1;"><g transform="translate(152.159686, 111.085786)"><path style="stroke:none" d="M 8.734375 -95.21875 L 35.578125 -95.21875 L 35.578125 -79.40625 C 38.878906 -85.226562 42.066406 -89.507812 45.140625 -92.25 C 48.210938 -95 51.835938 -96.375 56.015625 -96.375 C 57.546875 -96.375 58.914062 -96.207031 60.125 -95.875 L 60.125 -69.1875 C 56.832031 -70.507812 53.921875 -71.171875 51.390625 -71.171875 C 45.578125 -71.171875 40.304688 -68.09375 35.578125 -61.9375 L 35.578125 0 L 8.734375 0 Z M 8.734375 -95.21875 "/></g></g><g style="fill:#ffffff;fill-opacity:1;"><g transform="translate(201.907215, 111.085786)"><path style="stroke:none" d="M 39.53125 1.640625 C 29.101562 1.640625 20.976562 -1.128906 15.15625 -6.671875 C 9.332031 -12.210938 6.421875 -20.035156 6.421875 -30.140625 L 6.421875 -65.0625 C 6.421875 -75.164062 9.332031 -82.988281 15.15625 -88.53125 C 20.976562 -94.082031 29.101562 -96.859375 39.53125 -96.859375 C 50.070312 -96.859375 57.976562 -94.164062 63.25 -88.78125 C 68.53125 -83.40625 71.171875 -75.5 71.171875 -65.0625 L 71.171875 -45.953125 L 32.953125 -45.953125 L 32.953125 -27.671875 C 32.953125 -20.867188 35.144531 -17.46875 39.53125 -17.46875 C 44.144531 -17.46875 46.453125 -20.539062 46.453125 -26.6875 L 46.453125 -36.734375 L 71.171875 -36.734375 L 71.171875 -27.515625 C 71.171875 -17.953125 68.394531 -10.703125 62.84375 -5.765625 C 57.300781 -0.828125 49.53125 1.640625 39.53125 1.640625 Z M 46.453125 -58.484375 L 46.453125 -68.03125 C 46.453125 -71.550781 45.820312 -74.050781 44.5625 -75.53125 C 43.300781 -77.007812 41.570312 -77.75 39.375 -77.75 C 37.28125 -77.75 35.6875 -76.925781 34.59375 -75.28125 C 33.5 -73.632812 32.953125 -70.722656 32.953125 -66.546875 L 32.953125 -58.484375 Z M 46.453125 -58.484375 "/></g></g><g style="fill:#ffffff;fill-opacity:1;"><g transform="translate(265.986332, 111.085786)"><path style="stroke:none" d="M 39.703125 1.640625 C 29.265625 1.640625 21.109375 -0.992188 15.234375 -6.265625 C 9.359375 -11.535156 6.421875 -19.273438 6.421875 -29.484375 L 6.421875 -65.734375 C 6.421875 -75.941406 9.359375 -83.679688 15.234375 -88.953125 C 21.109375 -94.222656 29.265625 -96.859375 39.703125 -96.859375 C 50.128906 -96.859375 58.304688 -94.195312 64.234375 -88.875 C 70.171875 -83.550781 73.140625 -75.835938 73.140625 -65.734375 L 73.140625 -29.484375 C 73.140625 -19.378906 70.171875 -11.664062 64.234375 -6.34375 C 58.304688 -1.019531 50.128906 1.640625 39.703125 1.640625 Z M 39.859375 -16.140625 C 42.390625 -16.140625 44.148438 -17.097656 45.140625 -19.015625 C 46.128906 -20.941406 46.625 -23.828125 46.625 -27.671875 L 46.625 -67.546875 C 46.625 -71.390625 46.128906 -74.269531 45.140625 -76.1875 C 44.148438 -78.113281 42.390625 -79.078125 39.859375 -79.078125 C 37.335938 -79.078125 35.554688 -78.085938 34.515625 -76.109375 C 33.472656 -74.128906 32.953125 -71.273438 32.953125 -67.546875 L 32.953125 -27.671875 C 32.953125 -23.828125 33.472656 -20.941406 34.515625 -19.015625 C 35.554688 -17.097656 37.335938 -16.140625 39.859375 -16.140625 Z M 39.859375 -16.140625 "/></g></g><g style="fill:#ffffff;fill-opacity:1;"><g transform="translate(226.222358, 137.43236)"><path style="stroke:none" d="M 8.203125 -15.984375 C 10.054688 -15.984375 11.554688 -15.46875 12.703125 -14.4375 C 13.859375 -13.414062 14.550781 -12.050781 14.78125 -10.34375 L 12.140625 -10.34375 C 11.585938 -12.8125 10.253906 -14.046875 8.140625 -14.046875 C 7.335938 -14.046875 6.59375 -13.828125 5.90625 -13.390625 C 5.21875 -12.960938 4.664062 -12.296875 4.25 -11.390625 C 3.84375 -10.492188 3.640625 -9.34375 3.640625 -7.9375 C 3.640625 -6.425781 3.835938 -5.195312 4.234375 -4.25 C 4.640625 -3.3125 5.171875 -2.625 5.828125 -2.1875 C 6.484375 -1.75 7.195312 -1.53125 7.96875 -1.53125 C 9 -1.53125 9.863281 -1.816406 10.5625 -2.390625 C 11.257812 -2.972656 11.734375 -3.832031 11.984375 -4.96875 L 14.640625 -4.96875 C 14.265625 -3.164062 13.46875 -1.816406 12.25 -0.921875 C 11.039062 -0.0351562 9.5625 0.40625 7.8125 0.40625 C 6.5 0.40625 5.316406 0.125 4.265625 -0.4375 C 3.222656 -1.007812 2.394531 -1.894531 1.78125 -3.09375 C 1.175781 -4.300781 0.875 -5.859375 0.875 -7.765625 C 0.875 -9.523438 1.210938 -11.015625 1.890625 -12.234375 C 2.566406 -13.460938 3.460938 -14.394531 4.578125 -15.03125 C 5.703125 -15.664062 6.910156 -15.984375 8.203125 -15.984375 Z M 8.203125 -15.984375 "/></g></g><g style="fill:#ffffff;fill-opacity:1;"><g transform="translate(240.298888, 137.43236)"><path style="stroke:none" d="M 8.609375 -15.984375 C 10.367188 -15.984375 11.820312 -15.601562 12.96875 -14.84375 C 14.113281 -14.09375 14.960938 -13.097656 15.515625 -11.859375 C 16.066406 -10.617188 16.34375 -9.257812 16.34375 -7.78125 C 16.34375 -6.332031 16.066406 -4.984375 15.515625 -3.734375 C 14.960938 -2.484375 14.113281 -1.476562 12.96875 -0.71875 C 11.820312 0.03125 10.367188 0.40625 8.609375 0.40625 C 6.847656 0.40625 5.398438 0.03125 4.265625 -0.71875 C 3.128906 -1.476562 2.28125 -2.484375 1.71875 -3.734375 C 1.15625 -4.984375 0.875 -6.332031 0.875 -7.78125 C 0.875 -9.257812 1.15625 -10.617188 1.71875 -11.859375 C 2.28125 -13.097656 3.128906 -14.09375 4.265625 -14.84375 C 5.398438 -15.601562 6.847656 -15.984375 8.609375 -15.984375 Z M 8.609375 -1.53125 C 9.671875 -1.53125 10.566406 -1.796875 11.296875 -2.328125 C 12.035156 -2.867188 12.597656 -3.609375 12.984375 -4.546875 C 13.378906 -5.492188 13.578125 -6.570312 13.578125 -7.78125 C 13.578125 -9.625 13.140625 -11.128906 12.265625 -12.296875 C 11.398438 -13.460938 10.179688 -14.046875 8.609375 -14.046875 C 7.046875 -14.046875 5.828125 -13.460938 4.953125 -12.296875 C 4.078125 -11.128906 3.640625 -9.625 3.640625 -7.78125 C 3.640625 -6.570312 3.832031 -5.492188 4.21875 -4.546875 C 4.613281 -3.609375 5.179688 -2.867188 5.921875 -2.328125 C 6.660156 -1.796875 7.554688 -1.53125 8.609375 -1.53125 Z M 8.609375 -1.53125 "/></g></g><g style="fill:#ffffff;fill-opacity:1;"><g transform="translate(256.050635, 137.43236)"><path style="stroke:none" d="M 15.28125 -11.4375 C 15.320312 -11.039062 15.34375 -10.648438 15.34375 -10.265625 C 15.34375 -9.890625 15.34375 -9.390625 15.34375 -8.765625 L 15.34375 0 L 12.8125 0 L 12.8125 -8.578125 C 12.8125 -8.972656 12.8125 -9.347656 12.8125 -9.703125 C 12.8125 -10.054688 12.789062 -10.425781 12.75 -10.8125 C 12.675781 -11.738281 12.367188 -12.5 11.828125 -13.09375 C 11.285156 -13.6875 10.410156 -13.984375 9.203125 -13.984375 C 8.398438 -13.984375 7.65625 -13.757812 6.96875 -13.3125 C 6.28125 -12.863281 5.726562 -12.117188 5.3125 -11.078125 C 4.90625 -10.035156 4.703125 -8.625 4.703125 -6.84375 L 4.703125 0 L 2.171875 0 L 2.171875 -15.578125 L 4.703125 -15.578125 L 4.703125 -12.90625 L 5.671875 -14.6875 C 6.335938 -15.195312 6.984375 -15.539062 7.609375 -15.71875 C 8.234375 -15.894531 8.941406 -15.984375 9.734375 -15.984375 C 11.429688 -15.984375 12.75 -15.566406 13.6875 -14.734375 C 14.632812 -13.898438 15.164062 -12.800781 15.28125 -11.4375 Z M 15.28125 -11.4375 "/></g></g><g style="fill:#ffffff;fill-opacity:1;"><g transform="translate(272.008104, 137.43236)"><path style="stroke:none" d="M 6.703125 -15.984375 C 8.441406 -15.984375 9.789062 -15.53125 10.75 -14.625 C 11.71875 -13.726562 12.28125 -12.566406 12.4375 -11.140625 L 9.78125 -11.140625 C 9.601562 -12.054688 9.238281 -12.769531 8.6875 -13.28125 C 8.144531 -13.789062 7.414062 -14.046875 6.5 -14.046875 C 5.613281 -14.046875 4.957031 -13.828125 4.53125 -13.390625 C 4.113281 -12.960938 3.90625 -12.410156 3.90625 -11.734375 C 3.90625 -10.941406 4.207031 -10.351562 4.8125 -9.96875 C 5.425781 -9.59375 6.257812 -9.269531 7.3125 -9 C 9.113281 -8.519531 10.445312 -7.898438 11.3125 -7.140625 C 12.175781 -6.378906 12.609375 -5.332031 12.609375 -4 C 12.609375 -3.019531 12.351562 -2.203125 11.84375 -1.546875 C 11.332031 -0.890625 10.640625 -0.398438 9.765625 -0.078125 C 8.898438 0.242188 7.914062 0.40625 6.8125 0.40625 C 5.207031 0.40625 3.847656 0.015625 2.734375 -0.765625 C 1.617188 -1.546875 0.941406 -2.816406 0.703125 -4.578125 L 3.34375 -4.578125 C 3.5625 -3.441406 4 -2.648438 4.65625 -2.203125 C 5.3125 -1.753906 6.09375 -1.53125 7 -1.53125 C 7.84375 -1.53125 8.554688 -1.71875 9.140625 -2.09375 C 9.722656 -2.476562 10.015625 -3.046875 10.015625 -3.796875 C 10.015625 -4.535156 9.726562 -5.128906 9.15625 -5.578125 C 8.59375 -6.035156 7.65625 -6.441406 6.34375 -6.796875 C 5.425781 -7.046875 4.582031 -7.351562 3.8125 -7.71875 C 3.050781 -8.09375 2.445312 -8.578125 2 -9.171875 C 1.550781 -9.773438 1.328125 -10.53125 1.328125 -11.4375 C 1.328125 -12.863281 1.820312 -13.976562 2.8125 -14.78125 C 3.800781 -15.582031 5.097656 -15.984375 6.703125 -15.984375 Z M 6.703125 -15.984375 "/></g></g><g style="fill:#ffffff;fill-opacity:1;"><g transform="translate(284.027377, 137.43236)"><path style="stroke:none" d="M 15.109375 -15.578125 L 15.109375 0 L 12.578125 0 L 12.578125 -2.640625 L 11.609375 -0.828125 C 10.941406 -0.335938 10.300781 -0.0078125 9.6875 0.15625 C 9.070312 0.320312 8.359375 0.40625 7.546875 0.40625 C 5.941406 0.40625 4.671875 0.015625 3.734375 -0.765625 C 2.804688 -1.546875 2.257812 -2.476562 2.09375 -3.5625 C 2.03125 -3.945312 1.988281 -4.332031 1.96875 -4.71875 C 1.945312 -5.101562 1.9375 -5.609375 1.9375 -6.234375 L 1.9375 -15.578125 L 4.46875 -15.578125 L 4.46875 -6.703125 C 4.46875 -6.441406 4.476562 -6.113281 4.5 -5.71875 C 4.519531 -5.332031 4.546875 -4.945312 4.578125 -4.5625 C 4.703125 -3.675781 5.070312 -2.957031 5.6875 -2.40625 C 6.300781 -1.863281 7.140625 -1.59375 8.203125 -1.59375 C 9.023438 -1.59375 9.765625 -1.816406 10.421875 -2.265625 C 11.078125 -2.710938 11.597656 -3.457031 11.984375 -4.5 C 12.378906 -5.550781 12.578125 -6.960938 12.578125 -8.734375 L 12.578125 -15.578125 Z M 15.109375 -15.578125 "/></g></g><g style="fill:#ffffff;fill-opacity:1;"><g transform="translate(299.955476, 137.43236)"><path style="stroke:none" d="M 4.578125 -21.609375 L 4.578125 -4.46875 C 4.578125 -4.226562 4.578125 -3.984375 4.578125 -3.734375 C 4.578125 -3.492188 4.585938 -3.25 4.609375 -3 C 4.648438 -2.507812 4.804688 -2.171875 5.078125 -1.984375 C 5.359375 -1.796875 5.84375 -1.742188 6.53125 -1.828125 L 6.53125 0 C 6.25 0.0390625 5.953125 0.0703125 5.640625 0.09375 C 5.328125 0.113281 5.023438 0.125 4.734375 0.125 C 4.003906 0.125 3.390625 -0.0351562 2.890625 -0.359375 C 2.390625 -0.691406 2.125 -1.347656 2.09375 -2.328125 C 2.070312 -2.597656 2.0625 -2.898438 2.0625 -3.234375 C 2.0625 -3.566406 2.0625 -3.945312 2.0625 -4.375 L 2.0625 -21.609375 Z M 4.578125 -21.609375 "/></g></g><g style="fill:#ffffff;fill-opacity:1;"><g transform="translate(305.744136, 137.43236)"><path style="stroke:none" d="M 5.203125 -13.515625 L 5.203125 -4.5625 C 5.203125 -4.300781 5.203125 -4.085938 5.203125 -3.921875 C 5.203125 -3.753906 5.210938 -3.5625 5.234375 -3.34375 C 5.285156 -2.601562 5.503906 -2.125 5.890625 -1.90625 C 6.273438 -1.695312 6.957031 -1.648438 7.9375 -1.765625 L 7.9375 0.09375 C 7.5625 0.144531 7.195312 0.179688 6.84375 0.203125 C 6.488281 0.222656 6.140625 0.234375 5.796875 0.234375 C 4.828125 0.234375 4.085938 0.0195312 3.578125 -0.40625 C 3.078125 -0.84375 2.785156 -1.539062 2.703125 -2.5 C 2.679688 -2.71875 2.671875 -2.988281 2.671875 -3.3125 C 2.671875 -3.632812 2.671875 -4.007812 2.671875 -4.4375 L 2.671875 -13.515625 L 0.59375 -13.515625 L 0.59375 -15.453125 L 2.671875 -15.453125 L 2.671875 -19.078125 L 5.203125 -19.078125 L 5.203125 -15.453125 L 8.109375 -15.453125 L 8.109375 -13.515625 Z M 5.203125 -13.515625 "/></g></g><g style="fill:#ffffff;fill-opacity:1;"><g transform="translate(313.472508, 137.43236)"><path style="stroke:none" d="M 3.4375 -20.6875 C 3.882812 -20.6875 4.265625 -20.53125 4.578125 -20.21875 C 4.898438 -19.90625 5.0625 -19.523438 5.0625 -19.078125 C 5.0625 -18.628906 4.898438 -18.242188 4.578125 -17.921875 C 4.265625 -17.609375 3.882812 -17.453125 3.4375 -17.453125 C 2.988281 -17.453125 2.609375 -17.609375 2.296875 -17.921875 C 1.984375 -18.242188 1.828125 -18.628906 1.828125 -19.078125 C 1.828125 -19.523438 1.984375 -19.90625 2.296875 -20.21875 C 2.609375 -20.53125 2.988281 -20.6875 3.4375 -20.6875 Z M 4.703125 0 L 2.171875 0 L 2.171875 -15.578125 L 4.703125 -15.578125 Z M 4.703125 0 "/></g></g><g style="fill:#ffffff;fill-opacity:1;"><g transform="translate(318.996639, 137.43236)"><path style="stroke:none" d="M 15.28125 -11.4375 C 15.320312 -11.039062 15.34375 -10.648438 15.34375 -10.265625 C 15.34375 -9.890625 15.34375 -9.390625 15.34375 -8.765625 L 15.34375 0 L 12.8125 0 L 12.8125 -8.578125 C 12.8125 -8.972656 12.8125 -9.347656 12.8125 -9.703125 C 12.8125 -10.054688 12.789062 -10.425781 12.75 -10.8125 C 12.675781 -11.738281 12.367188 -12.5 11.828125 -13.09375 C 11.285156 -13.6875 10.410156 -13.984375 9.203125 -13.984375 C 8.398438 -13.984375 7.65625 -13.757812 6.96875 -13.3125 C 6.28125 -12.863281 5.726562 -12.117188 5.3125 -11.078125 C 4.90625 -10.035156 4.703125 -8.625 4.703125 -6.84375 L 4.703125 0 L 2.171875 0 L 2.171875 -15.578125 L 4.703125 -15.578125 L 4.703125 -12.90625 L 5.671875 -14.6875 C 6.335938 -15.195312 6.984375 -15.539062 7.609375 -15.71875 C 8.234375 -15.894531 8.941406 -15.984375 9.734375 -15.984375 C 11.429688 -15.984375 12.75 -15.566406 13.6875 -14.734375 C 14.632812 -13.898438 15.164062 -12.800781 15.28125 -11.4375 Z M 15.28125 -11.4375 "/></g></g><g style="fill:#ffffff;fill-opacity:1;"><g transform="translate(334.954108, 137.43236)"><path style="stroke:none" d="M 15.78125 -15.578125 L 15.78125 -3.828125 C 15.78125 -3.335938 15.78125 -2.816406 15.78125 -2.265625 C 15.78125 -1.710938 15.769531 -1.222656 15.75 -0.796875 C 15.675781 1.472656 14.988281 3.203125 13.6875 4.390625 C 12.382812 5.578125 10.601562 6.171875 8.34375 6.171875 C 6.132812 6.171875 4.457031 5.722656 3.3125 4.828125 C 2.175781 3.941406 1.53125 2.675781 1.375 1.03125 L 1.359375 0.734375 L 3.90625 0.734375 L 3.9375 1 C 4.03125 1.957031 4.453125 2.734375 5.203125 3.328125 C 5.960938 3.929688 7.007812 4.234375 8.34375 4.234375 C 9.894531 4.234375 11.082031 3.8125 11.90625 2.96875 C 12.726562 2.125 13.164062 0.957031 13.21875 -0.53125 C 13.238281 -0.90625 13.25 -1.222656 13.25 -1.484375 C 13.25 -1.742188 13.25 -1.992188 13.25 -2.234375 L 13.25 -2.5 L 12.078125 -0.828125 C 11.648438 -0.453125 11.054688 -0.15625 10.296875 0.0625 C 9.546875 0.289062 8.769531 0.40625 7.96875 0.40625 C 6.457031 0.40625 5.171875 0.0625 4.109375 -0.625 C 3.054688 -1.320312 2.253906 -2.273438 1.703125 -3.484375 C 1.148438 -4.691406 0.875 -6.046875 0.875 -7.546875 C 0.875 -9.472656 1.226562 -11.054688 1.9375 -12.296875 C 2.644531 -13.546875 3.582031 -14.472656 4.75 -15.078125 C 5.914062 -15.679688 7.164062 -15.984375 8.5 -15.984375 C 9.144531 -15.984375 9.828125 -15.894531 10.546875 -15.71875 C 11.273438 -15.539062 11.832031 -15.285156 12.21875 -14.953125 L 13.25 -13.4375 L 13.25 -15.578125 Z M 8.34375 -1.53125 C 9.207031 -1.53125 10.007812 -1.726562 10.75 -2.125 C 11.5 -2.53125 12.101562 -3.175781 12.5625 -4.0625 C 13.019531 -4.957031 13.25 -6.148438 13.25 -7.640625 L 13.25 -8.5 C 13.25 -9.84375 13.007812 -10.921875 12.53125 -11.734375 C 12.050781 -12.554688 11.441406 -13.144531 10.703125 -13.5 C 9.972656 -13.863281 9.238281 -14.046875 8.5 -14.046875 C 7.125 -14.046875 5.96875 -13.519531 5.03125 -12.46875 C 4.101562 -11.425781 3.640625 -9.882812 3.640625 -7.84375 C 3.640625 -6.664062 3.816406 -5.601562 4.171875 -4.65625 C 4.523438 -3.707031 5.050781 -2.945312 5.75 -2.375 C 6.445312 -1.8125 7.3125 -1.53125 8.34375 -1.53125 Z M 8.34375 -1.53125 "/></g></g></g></svg>